<svg xmlns="http://www.w3.org/2000/svg" width="50" height="40" viewBox="0 0 39.694 29.474">
  <g id="Icon_ionic-ios-menu" data-name="Icon ionic-ios-menu" transform="translate(-4.5 -10.125)">
    <path id="Path_1" data-name="Path 1" d="M42.54,12.375H6.154c-.91,0-1.654-.506-1.654-1.125h0c0-.619.744-1.125,1.654-1.125H42.54c.91,0,1.654.506,1.654,1.125h0C44.194,11.869,43.45,12.375,42.54,12.375Z" fill="#fcbf88"/>
    <path id="Path_2" data-name="Path 2" d="M42.54,19.125H6.154c-.91,0-1.654-.506-1.654-1.125h0c0-.619.744-1.125,1.654-1.125H42.54c.91,0,1.654.506,1.654,1.125h0C44.194,18.619,43.45,19.125,42.54,19.125Z" transform="translate(0 6.862)" fill="#fcbf88"/>
    <path id="Path_3" data-name="Path 3" d="M42.54,25.875H6.154c-.91,0-1.654-.506-1.654-1.125h0c0-.619.744-1.125,1.654-1.125H42.54c.91,0,1.654.506,1.654,1.125h0C44.194,25.369,43.45,25.875,42.54,25.875Z" transform="translate(0 13.724)" fill="#fcbf88"/>
  </g>
</svg>
