<svg xmlns="http://www.w3.org/2000/svg" width="160" height="160" viewBox="0 0 226 185">
  <g id="Group_6" data-name="Group 6" transform="translate(0 -0.076)">
    <g id="Rectangle_7" data-name="Rectangle 7" transform="translate(0 0.076)" fill="#fcbf88" stroke="#707070" stroke-width="1">
      <rect width="226" height="185" rx="20" stroke="none"/>
      <rect x="0.5" y="0.5" width="225" height="184" rx="19.5" fill="none"/>
    </g>
    <path id="Icon_ionic-ios-star" data-name="Icon ionic-ios-star" d="M23.752,10.559H16.413L14.183,3.9a.808.808,0,0,0-1.517,0l-2.23,6.655H3.048a.8.8,0,0,0-.8.8.587.587,0,0,0,.015.135.767.767,0,0,0,.334.564l6.032,4.25-2.315,6.73a.8.8,0,0,0,.274.9.772.772,0,0,0,.449.195.978.978,0,0,0,.5-.18l5.887-4.2,5.887,4.2a.935.935,0,0,0,.5.18.717.717,0,0,0,.444-.195.791.791,0,0,0,.274-.9l-2.315-6.73,5.982-4.29.145-.125a.837.837,0,0,0,.259-.534A.845.845,0,0,0,23.752,10.559Z" transform="translate(5.45 5)" fill="#937d22"/>
    <path id="Icon_ionic-ios-star-2" data-name="Icon ionic-ios-star" d="M23.752,10.559H16.413L14.183,3.9a.808.808,0,0,0-1.517,0l-2.23,6.655H3.048a.8.8,0,0,0-.8.8.587.587,0,0,0,.015.135.767.767,0,0,0,.334.564l6.032,4.25-2.315,6.73a.8.8,0,0,0,.274.9.772.772,0,0,0,.449.195.978.978,0,0,0,.5-.18l5.887-4.2,5.887,4.2a.935.935,0,0,0,.5.18.717.717,0,0,0,.444-.195.791.791,0,0,0,.274-.9l-2.315-6.73,5.982-4.29.145-.125a.837.837,0,0,0,.259-.534A.845.845,0,0,0,23.752,10.559Z" transform="translate(30.884 5)" fill="#937d22"/>
    <path id="Icon_ionic-ios-star-3" data-name="Icon ionic-ios-star" d="M23.752,10.559H16.413L14.183,3.9a.808.808,0,0,0-1.517,0l-2.23,6.655H3.048a.8.8,0,0,0-.8.8.587.587,0,0,0,.015.135.767.767,0,0,0,.334.564l6.032,4.25-2.315,6.73a.8.8,0,0,0,.274.9.772.772,0,0,0,.449.195.978.978,0,0,0,.5-.18l5.887-4.2,5.887,4.2a.935.935,0,0,0,.5.18.717.717,0,0,0,.444-.195.791.791,0,0,0,.274-.9l-2.315-6.73,5.982-4.29.145-.125a.837.837,0,0,0,.259-.534A.845.845,0,0,0,23.752,10.559Z" transform="translate(56.318 5)" fill="#937d22"/>
    <path id="Icon_ionic-ios-star-half" data-name="Icon ionic-ios-star-half" d="M23.752,10.559H16.413L14.183,3.9a.808.808,0,0,0-1.517,0l-2.23,6.655H3.048a.8.8,0,0,0-.8.8.587.587,0,0,0,.015.135.767.767,0,0,0,.334.564l6.031,4.25-2.315,6.73a.8.8,0,0,0,.274.9.772.772,0,0,0,.449.195.978.978,0,0,0,.5-.18l5.887-4.2,5.887,4.2a.935.935,0,0,0,.5.18.717.717,0,0,0,.444-.195.791.791,0,0,0,.274-.9l-2.315-6.73,5.982-4.29.145-.125a.837.837,0,0,0,.259-.534A.845.845,0,0,0,23.752,10.559Zm-2.365,1.756-3.981,2.859A1.4,1.4,0,0,0,16.9,16.76l1.5,4.375a.2.2,0,0,1-.3.229l-3.861-2.754,0,0a1.86,1.86,0,0,1-.8-1.522V6.633a.1.1,0,0,1,.19-.03h0L15.091,11a1.4,1.4,0,0,0,1.322.953h4.854A.2.2,0,0,1,21.387,12.315Z" transform="translate(81.751 5)" fill="#937d22"/>
    <text id="Peter_-_AUS_23-03-22_Been_looking_for_the_album_for_years_with_little_luck_pleasant_experience_" data-name="Peter - AUS
23-03-22
Been looking for the
album for years with
little luck, pleasant 
experience     " transform="translate(10 52.076)" fill="#10122c" font-size="19" font-family="Helvetica-BoldOblique, Helvetica" font-weight="700" font-style="oblique"><tspan x="0" y="0">Peter - AUS</tspan><tspan x="0" y="23">23-03-22</tspan><tspan font-family="Helvetica-Light, Helvetica" font-weight="300" font-style="normal"><tspan x="0" y="46">Been looking for the</tspan><tspan x="0" y="69">album for years with</tspan><tspan x="0" y="92">little luck, pleasant </tspan><tspan x="0" y="115" xml:space="preserve">experience     </tspan></tspan></text>
  </g>
</svg>
