<svg id="Group_9" data-name="Group 9" xmlns="http://www.w3.org/2000/svg" width="76.257" height="30.646" viewBox="0 0 76.257 30.646">
  <path id="Icon_awesome-instagram" data-name="Icon awesome-instagram" d="M15.325,9.7a7.857,7.857,0,1,0,7.857,7.857A7.845,7.845,0,0,0,15.325,9.7Zm0,12.965a5.108,5.108,0,1,1,5.108-5.108,5.118,5.118,0,0,1-5.108,5.108ZM25.336,9.382A1.833,1.833,0,1,1,23.5,7.549,1.828,1.828,0,0,1,25.336,9.382Zm5.2,1.86a9.069,9.069,0,0,0-2.475-6.421,9.129,9.129,0,0,0-6.421-2.475C19.113,2.2,11.529,2.2,9,2.345A9.116,9.116,0,0,0,2.578,4.814,9.1,9.1,0,0,0,.1,11.235c-.144,2.53-.144,10.114,0,12.644A9.069,9.069,0,0,0,2.578,30.3,9.141,9.141,0,0,0,9,32.776c2.53.144,10.114.144,12.644,0A9.069,9.069,0,0,0,28.064,30.3a9.129,9.129,0,0,0,2.475-6.421c.144-2.53.144-10.107,0-12.637ZM27.271,26.594a5.172,5.172,0,0,1-2.913,2.913c-2.017.8-6.8.615-9.033.615S8.3,30.3,6.291,29.507a5.172,5.172,0,0,1-2.913-2.913c-.8-2.017-.615-6.8-.615-9.033s-.178-7.023.615-9.033A5.172,5.172,0,0,1,6.291,5.614C8.308,4.814,13.1,5,15.325,5s7.023-.178,9.033.615a5.172,5.172,0,0,1,2.913,2.913c.8,2.017.615,6.8.615,9.033S28.071,24.584,27.271,26.594Z" transform="translate(0.005 -2.238)"/>
  <path id="Icon_awesome-facebook" data-name="Icon awesome-facebook" d="M31.215,15.889A15.326,15.326,0,1,0,13.494,31.03V20.319H9.6v-4.43h3.893V12.512c0-3.841,2.287-5.962,5.789-5.962a23.587,23.587,0,0,1,3.431.3v3.77H20.781a2.215,2.215,0,0,0-2.5,2.394v2.877h4.251l-.68,4.43H18.284V31.03A15.332,15.332,0,0,0,31.215,15.889Z" transform="translate(45.042 -0.384)"/>
</svg>
