<svg xmlns="http://www.w3.org/2000/svg" xmlns:xlink="http://www.w3.org/1999/xlink" width="58" height="55" viewBox="0 0 58 55">
  <defs>
    <filter id="Rectangle_17" x="0" y="0" width="58" height="55" filterUnits="userSpaceOnUse">
      <feOffset dy="3" input="SourceAlpha"/>
      <feGaussianBlur stdDeviation="3" result="blur"/>
      <feFlood flood-opacity="0.161"/>
      <feComposite operator="in" in2="blur"/>
      <feComposite in="SourceGraphic"/>
    </filter>
  </defs>
  <g transform="matrix(1, 0, 0, 1, 0, 0)" filter="url(#Rectangle_17)">
    <g id="Rectangle_17-2" data-name="Rectangle 17" transform="translate(9 6)" fill="#fcbf88" stroke="#707070" stroke-width="1">
      <rect width="40" height="37" rx="8" stroke="none"/>
      <rect x="0.5" y="0.5" width="39" height="36" rx="7.5" fill="none"/>
    </g>
  </g>
  <path id="Icon_zocial-cart" data-name="Icon zocial-cart" d="M-2.07,6.077a1.36,1.36,0,0,1,.395-1,1.356,1.356,0,0,1,1-.395H6.465a1.392,1.392,0,0,1,.866.289,1.35,1.35,0,0,1,.5.775L8.561,8.72H29.033l.214-.638a1.256,1.256,0,0,1,1.306-.972.935.935,0,0,1,.395.061,1.308,1.308,0,0,1,.729.486,1.327,1.327,0,0,1,.273.82,1.7,1.7,0,0,1-.061.395L28.305,20.809a1.307,1.307,0,0,1-.486.729,1.335,1.335,0,0,1-.82.273H10.019a1.35,1.35,0,0,1-.866-.3,1.419,1.419,0,0,1-.5-.76L5.372,7.444H-.673a1.374,1.374,0,0,1-.987-.395A1.3,1.3,0,0,1-2.07,6.077Zm11.3,5.407,1.883,7.533H25.966l.06-.272,2.188-7.26H9.23Zm1.276,14.7a2.665,2.665,0,0,1,.835-1.974,2.743,2.743,0,0,1,1.99-.82,2.794,2.794,0,0,1,0,5.588,2.742,2.742,0,0,1-1.99-.819A2.669,2.669,0,0,1,10.505,26.186ZM12.48,13.853h5.042v2.794H13.086Zm7.442,2.795.03-2.794h4.921l-.729,2.794Zm1.124,9.538a2.666,2.666,0,0,1,.836-1.974,2.74,2.74,0,0,1,1.99-.82,2.794,2.794,0,0,1,0,5.588,2.741,2.741,0,0,1-1.99-.819A2.666,2.666,0,0,1,21.046,26.186Z" transform="translate(13.56 7.67)" fill="#fcbf88" stroke="#000" stroke-width="1"/>
</svg>
