<svg xmlns="http://www.w3.org/2000/svg" width="187.629" height="26.734" viewBox="0 0 197.629 36.734">
  <path id="Icon_zocial-cart" data-name="Icon zocial-cart" d="M-2.07,6.774a2.05,2.05,0,0,1,.585-1.5A2,2,0,0,1,0,4.68H10.582a2.049,2.049,0,0,1,1.283.432,2.025,2.025,0,0,1,.743,1.161l1.081,4.461H44.033l.317-.956a1.865,1.865,0,0,1,1.936-1.457,1.372,1.372,0,0,1,.585.091,1.938,1.938,0,0,1,1.081.728,2,2,0,0,1,.405,1.229,2.57,2.57,0,0,1-.09.592L42.953,28.853a1.991,1.991,0,0,1-1.936,1.5H15.849a1.987,1.987,0,0,1-1.283-.454,2.128,2.128,0,0,1-.743-1.14L8.961,8.823H0a2.025,2.025,0,0,1-1.463-.592A1.953,1.953,0,0,1-2.07,6.774Zm16.749,8.1,2.791,11.29H39.487l.089-.408,3.243-10.88H14.679ZM16.57,36.911a4.212,4.212,0,0,1,4.187-4.188,3.969,3.969,0,0,1,2.927,1.229,4.209,4.209,0,0,1,0,5.918A3.968,3.968,0,0,1,20.757,41.1a4.21,4.21,0,0,1-4.187-4.187ZM19.5,18.428H26.97v4.187H20.4Zm11.031,4.188.045-4.187h7.294l-1.081,4.187Zm1.666,14.294a4.215,4.215,0,0,1,4.189-4.188,3.967,3.967,0,0,1,2.927,1.229,4.213,4.213,0,0,1,0,5.918A3.968,3.968,0,0,1,36.381,41.1a4.212,4.212,0,0,1-4.189-4.187Z" transform="translate(2.07 -4.68)" fill="#fcbf88"/>
  <text id="Summary:" transform="translate(128.629 29.734)" fill="#fcbf88" font-size="28" font-family="Helvetica-Bold, Helvetica" font-weight="700"><tspan x="-68.469" y="0">Summary:</tspan></text>
</svg>
