<svg xmlns="http://www.w3.org/2000/svg" width="30" height="50" viewBox="0 0 39.485 61.008">
  <g id="Group_7" data-name="Group 7" transform="translate(1.742)">
    <path id="Icon_awesome-arrow-alt-circle-right" data-name="Icon awesome-arrow-alt-circle-right" d="M20.3.563A19.742,19.742,0,1,1,.563,20.3,19.739,19.739,0,0,1,20.3.563ZM11.071,23.808H20.3v5.644a.956.956,0,0,0,1.632.677l9.1-9.147a.947.947,0,0,0,0-1.345l-9.1-9.155a.955.955,0,0,0-1.632.677V16.8H11.071a.958.958,0,0,0-.955.955v5.095A.958.958,0,0,0,11.071,23.808Z" transform="translate(-2.305 -0.563)" fill="#fcbf88"/>
    <text id="More" transform="translate(0 57.008)" fill="#fcbf88" font-size="16" font-family="Helvetica-Light, Helvetica" font-weight="300"><tspan x="0" y="0">More</tspan></text>
  </g>
</svg>
