<svg xmlns="http://www.w3.org/2000/svg" width="160" height="160" viewBox="0 0 226 185">
  <g id="Group_10" data-name="Group 10" transform="translate(0 -0.076)">
    <g id="Rectangle_6" data-name="Rectangle 6" transform="translate(0 0.076)" fill="#fcbf88" stroke="#707070" stroke-width="1">
      <rect width="226" height="185" rx="20" stroke="none"/>
      <rect x="0.5" y="0.5" width="225" height="184" rx="19.5" fill="none"/>
    </g>
    <path id="Icon_ionic-ios-star" data-name="Icon ionic-ios-star" d="M23.752,10.559H16.413L14.183,3.9a.808.808,0,0,0-1.517,0l-2.23,6.655H3.048a.8.8,0,0,0-.8.8.587.587,0,0,0,.015.135.767.767,0,0,0,.334.564l6.032,4.25-2.315,6.73a.8.8,0,0,0,.274.9.772.772,0,0,0,.449.195.978.978,0,0,0,.5-.18l5.887-4.2,5.887,4.2a.935.935,0,0,0,.5.18.717.717,0,0,0,.444-.195.791.791,0,0,0,.274-.9l-2.315-6.73,5.982-4.29.145-.125a.837.837,0,0,0,.259-.534A.845.845,0,0,0,23.752,10.559Z" transform="translate(6.4 5)" fill="#937d22"/>
    <path id="Icon_ionic-ios-star-2" data-name="Icon ionic-ios-star" d="M23.752,10.559H16.413L14.183,3.9a.808.808,0,0,0-1.517,0l-2.23,6.655H3.048a.8.8,0,0,0-.8.8.587.587,0,0,0,.015.135.767.767,0,0,0,.334.564l6.032,4.25-2.315,6.73a.8.8,0,0,0,.274.9.772.772,0,0,0,.449.195.978.978,0,0,0,.5-.18l5.887-4.2,5.887,4.2a.935.935,0,0,0,.5.18.717.717,0,0,0,.444-.195.791.791,0,0,0,.274-.9l-2.315-6.73,5.982-4.29.145-.125a.837.837,0,0,0,.259-.534A.845.845,0,0,0,23.752,10.559Z" transform="translate(58.285 5)" fill="#937d22"/>
    <path id="Icon_ionic-ios-star-3" data-name="Icon ionic-ios-star" d="M23.752,10.559H16.413L14.183,3.9a.808.808,0,0,0-1.517,0l-2.23,6.655H3.048a.8.8,0,0,0-.8.8.587.587,0,0,0,.015.135.767.767,0,0,0,.334.564l6.032,4.25-2.315,6.73a.8.8,0,0,0,.274.9.772.772,0,0,0,.449.195.978.978,0,0,0,.5-.18l5.887-4.2,5.887,4.2a.935.935,0,0,0,.5.18.717.717,0,0,0,.444-.195.791.791,0,0,0,.274-.9l-2.315-6.73,5.982-4.29.145-.125a.837.837,0,0,0,.259-.534A.845.845,0,0,0,23.752,10.559Z" transform="translate(32.343 5)" fill="#937d22"/>
    <path id="Icon_ionic-ios-star-4" data-name="Icon ionic-ios-star" d="M23.752,10.559H16.413L14.183,3.9a.808.808,0,0,0-1.517,0l-2.23,6.655H3.048a.8.8,0,0,0-.8.8.587.587,0,0,0,.015.135.767.767,0,0,0,.334.564l6.032,4.25-2.315,6.73a.8.8,0,0,0,.274.9.772.772,0,0,0,.449.195.978.978,0,0,0,.5-.18l5.887-4.2,5.887,4.2a.935.935,0,0,0,.5.18.717.717,0,0,0,.444-.195.791.791,0,0,0,.274-.9l-2.315-6.73,5.982-4.29.145-.125a.837.837,0,0,0,.259-.534A.845.845,0,0,0,23.752,10.559Z" transform="translate(84.228 5)" fill="#937d22"/>
    <text id="Steven_-_UK_09-02-22_International_shipping_quicker_than_expected._Perfect_as_the_last_minute_gift_" data-name="Steven - UK
09-02-22
International shipping
quicker than expected.
Perfect as the last 
minute gift!" transform="translate(8 50.076)" fill="#10122c" font-size="20" font-family="Helvetica-BoldOblique, Helvetica" font-weight="700" font-style="oblique"><tspan x="0" y="0">Steven - UK</tspan><tspan x="0" y="24">09-02-22</tspan><tspan font-family="Helvetica-Light, Helvetica" font-weight="300" font-style="normal"><tspan x="0" y="48">International shipping</tspan><tspan x="0" y="72">quicker than expected.</tspan><tspan x="0" y="96">Perfect as the last </tspan><tspan x="0" y="120">minute gift!</tspan></tspan></text>
    <path id="Icon_ionic-ios-star-5" data-name="Icon ionic-ios-star" d="M23.752,10.559H16.413L14.183,3.9a.808.808,0,0,0-1.517,0l-2.23,6.655H3.048a.8.8,0,0,0-.8.8.587.587,0,0,0,.015.135.767.767,0,0,0,.334.564l6.032,4.25-2.315,6.73a.8.8,0,0,0,.274.9.772.772,0,0,0,.449.195.978.978,0,0,0,.5-.18l5.887-4.2,5.887,4.2a.935.935,0,0,0,.5.18.717.717,0,0,0,.444-.195.791.791,0,0,0,.274-.9l-2.315-6.73,5.982-4.29.145-.125a.837.837,0,0,0,.259-.534A.845.845,0,0,0,23.752,10.559Z" transform="translate(110.17 5)" fill="#937d22"/>
  </g>
</svg>
